<svg version="1.1"
	 xmlns="http://www.w3.org/2000/svg" xmlns:xlink="http://www.w3.org/1999/xlink" xmlns:a="http://ns.adobe.com/AdobeSVGViewerExtensions/3.0/"
	 x="0px" y="0px" width="125.7px" height="49.3px" viewBox="0 0 125.7 49.3" enable-background="new 0 0 125.7 49.3"
	 xml:space="preserve">
<defs>
</defs>
<g>
	<path fill="#FFFFFF" d="M52.4,18.9l-7.8,25.5c-0.8,2.6-3.3,4.5-6,4.5h-0.1c-2.8,0-5.3-1.8-6-4.5l-6.1-19.7l-6.1,19.7
		c-0.8,2.6-3.3,4.5-6,4.5H14c-2.7,0-5.3-1.9-6-4.5L0.2,18.9C0.1,18.5,0,18.1,0,17.6c0-2.2,1.9-4.4,4.6-4.4c1.9,0,3.8,1.3,4.3,3.2
		l5.7,20.6l6.6-20.2c0.7-2.2,2.8-3.7,5.3-3.7c2.2,0,4.3,1.5,5,3.7L38,37.1l5.7-20.6c0.5-1.9,2.4-3.2,4.4-3.2c2.7,0,4.5,2.1,4.5,4.4
		C52.6,18.1,52.6,18.5,52.4,18.9z"/>
	<path fill="#FFFFFF" d="M87.3,34H65.9c0.6,4.4,4.1,8.1,10,8.1c1.9,0,4.6-0.6,6.8-1.7c0.6-0.3,1.2-0.4,1.8-0.4
		c1.9,0,3.9,1.5,3.9,3.7c0,4.1-8.9,5.8-13.5,5.8c-10.6,0-18.6-7.1-18.6-18.3c0-10.1,7.4-18.2,18-18.2c7.8,0,13.8,4.5,16.3,11.7
		c0.5,1.6,1,3.5,1,5.3C91.6,32,89.7,34,87.3,34z M74.3,20.1c-5.7,0-8.1,4.2-8.6,7.7h17.1C82.7,24.5,80.4,20.1,74.3,20.1z"/>
	<path fill="#FFFFFF" d="M102.9,48.9c-2.5,0-4.5-2-4.5-4.5V4.5c0-2.4,2-4.5,4.7-4.5c2.4,0,4.5,2,4.5,4.5v39.9
		C107.5,46.9,105.5,48.9,102.9,48.9z"/>
	<path fill="#FFFFFF" d="M121.1,48.9c-2.5,0-4.5-2-4.5-4.5V4.5c0-2.4,2-4.5,4.7-4.5c2.4,0,4.5,2,4.5,4.5v39.9
		C125.7,46.9,123.7,48.9,121.1,48.9z"/>
</g>
</svg>
