<!-- Generator: Adobe Illustrator 19.1.1, SVG Export Plug-In  -->
<svg version="1.1"
	 xmlns="http://www.w3.org/2000/svg" xmlns:xlink="http://www.w3.org/1999/xlink" xmlns:a="http://ns.adobe.com/AdobeSVGViewerExtensions/3.0/"
	 x="0px" y="0px" width="628.3px" height="618.8px" viewBox="0 0 628.3 618.8"
	 style="overflow:scroll;enable-background:new 0 0 628.3 618.8;" xml:space="preserve">
<style type="text/css">
	.st0{fill:#D1D3D4;stroke:#A7A9AC;stroke-width:2;stroke-miterlimit:10;}
	.st1{fill:#D1D3D4;stroke:#A7A9AC;stroke-width:4;stroke-miterlimit:10;}
	.st2{fill:#BCBEC0;}
	.st3{fill:#D1D3D4;}
	.st4{fill:#E6E7E8;}
	.st5{fill:#F1F2F2;}
	.st6{fill:#A7A9AC;}
	.st7{fill:#F1F2F2;stroke:#A7A9AC;stroke-width:2;stroke-miterlimit:10;}
	.st8{fill:#BCBEC0;stroke:#A7A9AC;stroke-width:2;stroke-miterlimit:10;}
	.st9{fill:#FFFFFF;stroke:#A7A9AC;stroke-width:2;stroke-miterlimit:10;}
	.st10{fill:#E6E7E8;stroke:#A7A9AC;stroke-width:2;stroke-miterlimit:10;}
	.st11{fill:none;stroke:#A7A9AC;stroke-width:2;stroke-miterlimit:10;}
	.st12{opacity:0.2;fill:#F1F2F2;stroke:#A7A9AC;stroke-miterlimit:10;}
	.st13{fill:#E6E7E8;stroke:#BCBEC0;stroke-width:2;stroke-miterlimit:10;}
	.st14{fill:#FFFFFF;stroke:#E6E7E8;stroke-miterlimit:10;}
	.st15{fill:none;stroke:#D1D3D4;stroke-width:2;stroke-miterlimit:10;}
	.st16{fill:#F1F2F2;stroke:#E6E7E8;stroke-miterlimit:10;}
</style>
<defs>
</defs>
<g>
	<path class="st0" d="M566.4,205.9H360.5c-25.6,0-46.3,18.2-46.3,40.6l114,110.9h35.4L354.8,253.1c0-9,8.3-16.2,18.5-16.2h107.8
		h35.4H579L566.4,205.9z"/>
	<polygon class="st1" points="284.5,595 284.5,602.8 196.1,602.8 196.1,595 196.7,594.7 216.4,587 216.4,550.1 221.8,550.1 
		221.8,544.1 228,544.1 228,522.5 252.6,522.5 252.6,544.1 258.8,544.1 258.8,550.1 264.2,550.1 264.2,587 283.9,594.7 	"/>
	<rect x="228" y="522.5" class="st2" width="24.6" height="32.7"/>
	<rect x="221.8" y="544.1" class="st3" width="37" height="6"/>
	<polygon class="st3" points="284.5,595 196.1,595 217.4,586.6 263.2,586.6 	"/>
	<polygon class="st4" points="243.4,594.9 196.1,595 217.4,586.6 243.4,586.6 	"/>
	<rect x="196.1" y="594.7" class="st4" width="88.5" height="8.1"/>
	<rect x="196.1" y="594.7" class="st5" width="47.4" height="8.1"/>
	<rect x="216.4" y="550.1" class="st4" width="47.8" height="37.2"/>
	<rect x="216.4" y="550.1" class="st5" width="27" height="37.2"/>
	<polygon class="st1" points="431.7,595 431.7,602.8 343.3,602.8 343.3,595 343.9,594.7 363.6,587 363.6,550.1 369,550.1 369,544.1 
		375.2,544.1 375.2,522.5 399.8,522.5 399.8,544.1 406,544.1 406,550.1 411.4,550.1 411.4,587 431.1,594.7 	"/>
	<rect x="375.2" y="522.5" class="st2" width="24.6" height="32.7"/>
	<rect x="369" y="544.1" class="st3" width="37" height="6"/>
	<polygon class="st3" points="431.7,595 343.3,595 364.6,586.6 410.4,586.6 	"/>
	<polygon class="st4" points="390.6,594.9 343.3,595 364.6,586.6 390.6,586.6 	"/>
	<rect x="343.3" y="594.7" class="st4" width="88.5" height="8.1"/>
	<rect x="343.3" y="594.7" class="st5" width="47.4" height="8.1"/>
	<rect x="363.6" y="550.1" class="st4" width="47.8" height="37.2"/>
	<rect x="363.6" y="550.1" class="st5" width="27" height="37.2"/>
	<path class="st0" d="M146.7,365.3l86.6,159.5l20.1-6.7l-70.8-150.4C181.5,358.9,144,343.1,146.7,365.3z"/>
	<g>
		<circle class="st4" cx="240.3" cy="517.8" r="17.8"/>
		<circle class="st3" cx="240.3" cy="517.8" r="14.9"/>
		<circle class="st4" cx="240.3" cy="517.8" r="10.2"/>
		<circle class="st6" cx="240.3" cy="517.8" r="7.2"/>
	</g>
	<circle class="st2" cx="195.3" cy="426.1" r="6.4"/>
	<circle class="st2" cx="222.5" cy="480.8" r="5.4"/>
	<circle class="st2" cx="364.2" cy="279.6" r="6.5"/>
	<circle class="st2" cx="412.4" cy="325" r="6.6"/>
	<path class="st0" d="M59.2,205.9h205.9c25.6,0,46.3,18.2,46.3,40.6l-114,110.9H162l108.8-104.2c0-9-8.3-16.2-18.5-16.2H144.5h-35.4
		H46.6L59.2,205.9z"/>
	<g>
		<circle class="st4" cx="311.4" cy="231.7" r="40.6"/>
		<circle class="st3" cx="311.4" cy="231.7" r="34"/>
		<circle class="st4" cx="311.4" cy="231.7" r="23.4"/>
		<circle class="st6" cx="311.4" cy="231.7" r="16.5"/>
	</g>
	<g>
		<circle class="st4" cx="168.8" cy="374.7" r="33.8"/>
		<circle class="st3" cx="168.8" cy="374.7" r="28.3"/>
		<circle class="st4" cx="168.8" cy="374.7" r="19.5"/>
		<circle class="st6" cx="168.8" cy="374.7" r="13.7"/>
	</g>
	<path class="st0" d="M481.1,365.3l-86.6,159.5l-20.1-6.7l70.8-150.4C446.2,358.9,483.8,343.1,481.1,365.3z"/>
	<g>
		<circle class="st4" cx="387.5" cy="517.8" r="17.8"/>
		<circle class="st3" cx="387.5" cy="517.8" r="14.9"/>
		<circle class="st4" cx="387.5" cy="517.8" r="10.2"/>
		<circle class="st6" cx="387.5" cy="517.8" r="7.2"/>
	</g>
	<circle class="st2" cx="432.5" cy="426.1" r="6.4"/>
	<circle class="st2" cx="405.3" cy="480.8" r="5.4"/>
	<g>
		<circle class="st4" cx="456.8" cy="374.7" r="33.8"/>
		<circle class="st3" cx="456.8" cy="374.7" r="28.3"/>
		<circle class="st4" cx="456.8" cy="374.7" r="19.5"/>
		<circle class="st6" cx="456.8" cy="374.7" r="13.7"/>
	</g>
	<circle class="st2" cx="261.4" cy="279.6" r="6.5"/>
	<circle class="st2" cx="213.2" cy="325" r="6.6"/>
	<g>
		<rect x="44.5" y="1" class="st7" width="534" height="227.2"/>
		<path class="st8" d="M74.9,40.4h-2.4c-3.1,0-5.6-2.5-5.6-5.6v-2.4c0-3.1,2.5-5.6,5.6-5.6h2.4c3.1,0,5.6,2.5,5.6,5.6v2.4
			C80.5,37.9,78,40.4,74.9,40.4z"/>
		<path class="st9" d="M109.4,40.4h-2.4c-3.1,0-5.6-2.5-5.6-5.6v-2.4c0-3.1,2.5-5.6,5.6-5.6h2.4c3.1,0,5.6,2.5,5.6,5.6v2.4
			C115,37.9,112.5,40.4,109.4,40.4z"/>
		<path class="st10" d="M143.8,40.4h-2.4c-3.1,0-5.6-2.5-5.6-5.6v-2.4c0-3.1,2.5-5.6,5.6-5.6h2.4c3.1,0,5.6,2.5,5.6,5.6v2.4
			C149.4,37.9,146.9,40.4,143.8,40.4z"/>
		<g>
			<rect x="183" y="32.9" class="st9" width="261.1" height="170.3"/>
			<path class="st11" d="M225.8,145.6c18.4-30.8,42.7-62.3,65.5-58.7c27.3,4.2,33,55.8,58,58c12.5,1.1,30.8-10.1,56.1-63"/>
			<ellipse class="st9" cx="225.8" cy="145.6" rx="7.2" ry="7.5"/>
			<ellipse class="st9" cx="405.3" cy="81.8" rx="7.2" ry="7.5"/>
			<rect x="183" y="57.5" class="st12" width="261.1" height="6.6"/>
			<rect x="183" y="87.7" class="st12" width="261.1" height="6.6"/>
			<rect x="183" y="118.4" class="st12" width="261.1" height="6.6"/>
			<rect x="183" y="148" class="st12" width="261.1" height="6.6"/>
			<rect x="183" y="175.3" class="st12" width="261.1" height="6.6"/>
		</g>
		<circle class="st13" cx="514.4" cy="74" r="41.1"/>
		<circle class="st14" cx="514.4" cy="74" r="34.9"/>
		<line class="st15" x1="514.5" y1="74.2" x2="534.5" y2="54.2"/>
		<circle class="st3" cx="533.6" cy="55.2" r="3.2"/>
		<circle class="st16" cx="514.4" cy="74" r="6.5"/>
		<rect x="512.9" y="39.3" class="st4" width="3" height="5.4"/>
		<rect x="542.8" y="72.8" class="st4" width="6.6" height="3"/>
		<rect x="479.5" y="72.8" class="st4" width="6.6" height="3"/>
		<rect x="66.9" y="74.9" class="st6" width="82.6" height="2.6"/>
		<circle class="st10" cx="81.2" cy="76.2" r="7.3"/>
		<rect x="67" y="106.7" class="st6" width="82.6" height="2.6"/>
		<rect x="479.9" y="120.6" class="st6" width="2.6" height="82.6"/>
		<rect x="473.3" y="159.3" class="st10" width="15.7" height="5.2"/>
		<rect x="513.2" y="120.6" class="st6" width="2.6" height="82.6"/>
		<rect x="506.6" y="179.3" class="st10" width="15.7" height="5.2"/>
		<rect x="546.3" y="120.6" class="st6" width="2.6" height="82.6"/>
		<rect x="539.8" y="139.2" class="st10" width="15.7" height="5.2"/>
		<circle class="st10" cx="108.3" cy="108" r="7.3"/>
		<g>
			<circle class="st10" cx="75.6" cy="150.7" r="7.3"/>
			<rect x="68.3" y="149.4" class="st6" width="7.6" height="2.6"/>
		</g>
		<g>
			<circle class="st10" cx="141" cy="150.7" r="7.3"/>
			<rect x="139.7" y="143.4" class="st6" width="2.6" height="7.6"/>
		</g>
		<g>
			<circle class="st10" cx="108.1" cy="150.7" r="7.3"/>
			
				<rect x="101.9" y="146.9" transform="matrix(0.7071 0.7071 -0.7071 0.7071 135.7458 -31.3163)" class="st6" width="7.6" height="2.6"/>
		</g>
		<rect x="68.2" y="187.2" class="st10" width="16" height="16"/>
		<rect x="100.1" y="187.2" class="st10" width="16" height="16"/>
		<rect x="132.4" y="187.2" class="st10" width="16" height="16"/>
		<rect x="131.2" y="187.2" class="st6" width="8.5" height="16"/>
		<rect x="108.1" y="187.2" class="st6" width="9.3" height="16"/>
		<rect x="67" y="187.2" class="st6" width="8.6" height="16"/>
	</g>
</g>
<rect x="1" y="605.3" class="st0" width="626.3" height="12.5"/>
</svg>
