<!-- Generator: Adobe Illustrator 18.1.1, SVG Export Plug-In  -->
<svg version="1.1"
	 xmlns="http://www.w3.org/2000/svg" xmlns:xlink="http://www.w3.org/1999/xlink" xmlns:a="http://ns.adobe.com/AdobeSVGViewerExtensions/3.0/"
	 x="0px" y="0px" width="1322.8px" height="367.4px" viewBox="0 0 1322.8 367.4" enable-background="new 0 0 1322.8 367.4"
	 xml:space="preserve">
<defs>
</defs>
<polygon fill="#FEF9CE" points="640.1,284.5 514.5,358.5 431.2,204.9 483.4,164.1 "/>
<path fill="#FFFFFF" stroke="#687D92" stroke-width="1.5" stroke-miterlimit="10" d="M661.2,185.4c-52.4,0-94.9,42.5-94.9,94.9H756
	C756,227.9,713.6,185.4,661.2,185.4z"/>
<path fill="#FFFFFF" stroke="#687D92" stroke-width="1.5" stroke-miterlimit="10" d="M570.9,271c-8.2,0-14.8,6.6-14.8,14.8h29.6
	C585.7,277.6,579,271,570.9,271z"/>
<path fill="#FFFFFF" stroke="#687D92" stroke-width="1.5" stroke-miterlimit="10" d="M749.5,269.5c-9,0-16.3,7.3-16.3,16.3h32.6
	C765.8,276.8,758.5,269.5,749.5,269.5z"/>
<g>
	<path fill="#E3F4F8" stroke="#687D92" stroke-width="1.5" stroke-miterlimit="10" d="M975.2,366.7H354.5c-0.8,0-1.5-0.7-1.5-1.5
		v-69.7c0-0.8,0.7-1.5,1.5-1.5h620.7c0.8,0,1.5,0.7,1.5,1.5v69.7C976.7,366,976,366.7,975.2,366.7z"/>
	<rect x="354.3" y="295.7" fill="#A2C6D8" width="621" height="5.6"/>
	<path fill="#E3F4F8" stroke="#687D92" stroke-width="1.5" stroke-miterlimit="10" d="M990,295.4H339.7c-0.8,0-1.5-0.7-1.5-1.5
		v-10.6c0-0.8,0.7-1.5,1.5-1.5H990c0.8,0,1.5,0.7,1.5,1.5v10.6C991.5,294.7,990.8,295.4,990,295.4z"/>
</g>
<g>
	<ellipse fill="#E3F4F8" cx="658.1" cy="103" rx="38" ry="31.7"/>
	<path fill="#A2C6D8" d="M620.2,106.6c0,0,2.5-12.9,12.9-22.5c0,0,15.4,9.4,38.1-1.9c0,0,6.4,2.4,20,3.8l3.1,24.8
		c0,0,7.2-6.6,2.5-26.6c-4.6-20-26.7-23.5-26.7-23.5s-12.5,2.6-25.5-8.1c0,0-3.8,4.6-2.6,10.5c0,0-1.7,4.4-14.2,1.5l-0.9,7
		C626.8,71.5,613.8,81.1,620.2,106.6z"/>
	<path fill="#687D92" stroke="#687D92" stroke-width="2" stroke-miterlimit="10" d="M620.2,106.6c0,0,1.2-17.1,11.6-26.7
		c0,0,16.5,11.6,39.2,0.3c0,0,4.4,6.8,18,8.2l5.3,22.5c0,0,7.2-6.6,2.5-26.6c-4.6-20-26.7-23.5-26.7-23.5s-12.5,2.6-25.5-8.1
		c0,0-3.8,4.6-2.6,10.5c0,0-1.7,4.4-14.2,1.5l-0.9,7C626.8,71.5,613.8,81.1,620.2,106.6z"/>
</g>
<path fill="#E3F4F8" stroke="#687D92" stroke-width="1.5" stroke-miterlimit="10" d="M539.8,280.4h-61.6c-1,0-1.7-0.8-1.7-1.7v0
	c0-1,0.8-1.7,1.7-1.7h61.6c1,0,1.7,0.8,1.7,1.7v0C541.5,279.6,540.7,280.4,539.8,280.4z"/>
<g>
	<g>
		<g>
			<path fill="#E3F4F8" stroke="#687D92" stroke-width="1.5" stroke-miterlimit="10" d="M768.7,265H561c-5.2,0-9.5-4.3-9.5-9.5
				V117.1c0-5.2,4.3-9.5,9.5-9.5h207.7c5.2,0,9.5,4.3,9.5,9.5v138.4C778.2,260.8,773.9,265,768.7,265z"/>
			<path fill="#A2C6D8" d="M761.6,258.3h-183c-5.4,0-9.8-4.4-9.8-9.8V122.6c0-5.4,4.4-9.8,9.8-9.8h183c5.4,0,9.8,4.4,9.8,9.8v125.9
				C771.4,253.9,767,258.3,761.6,258.3z"/>
			<circle fill="#FFFFFF" cx="664.8" cy="155.3" r="10"/>
			<circle fill="#E3F4F8" stroke="#687D92" stroke-width="1.5" stroke-miterlimit="10" cx="756.2" cy="241.9" r="4.1"/>
			<path fill="#687D92" d="M742.5,122.3H587.2c-0.6,0-1.1-0.5-1.1-1.1v0c0-0.6,0.5-1.1,1.1-1.1h155.2c0.6,0,1.1,0.5,1.1,1.1v0
				C743.6,121.8,743.1,122.3,742.5,122.3z"/>
			<path fill="#687D92" d="M585,247.5v-10.1c0-0.5,0.4-0.9,0.9-0.9h0.5c0.5,0,0.9,0.4,0.9,0.9v10.1c0,0.5-0.4,0.9-0.9,0.9h-0.5
				C585.4,248.4,585,248,585,247.5z"/>
			<path fill="#687D92" d="M598.8,247.5v-10.1c0-0.5,0.4-0.9,0.9-0.9h0.5c0.5,0,0.9,0.4,0.9,0.9v10.1c0,0.5-0.4,0.9-0.9,0.9h-0.5
				C599.2,248.4,598.8,248,598.8,247.5z"/>
			<path fill="#687D92" d="M604,247.5v-10.1c0-0.5,0.4-0.9,0.9-0.9h0.5c0.5,0,0.9,0.4,0.9,0.9v10.1c0,0.5-0.4,0.9-0.9,0.9h-0.5
				C604.4,248.4,604,248,604,247.5z"/>
			<path fill="#687D92" d="M609.3,247.5v-10.1c0-0.5,0.4-0.9,0.9-0.9h0.5c0.5,0,0.9,0.4,0.9,0.9v10.1c0,0.5-0.4,0.9-0.9,0.9h-0.5
				C609.7,248.4,609.3,248,609.3,247.5z"/>
			<text transform="matrix(1 0 0 1 660.4434 158.9861)" fill="#687D92" font-family="'ProximaNova-Bold'" font-size="12">w</text>
		</g>
		<g>
			<path fill="#E3F4F8" stroke="#687D92" stroke-width="1.5" stroke-miterlimit="10" d="M689.5,278.3h-50.3c-1.2,0-2.2-1.1-2-2.3
				l10.4-85.2c0.1-1,1-1.8,2-1.8h28.4c1,0,1.9,0.8,2,1.8l11.5,85.2C691.7,277.2,690.8,278.3,689.5,278.3z"/>
			<path fill="#687D92" d="M676.2,199.4h-23.5c-0.2,0-0.4-0.2-0.4-0.4v-1.4c0-0.2,0.2-0.4,0.4-0.4h23.5c0.2,0,0.4,0.2,0.4,0.4v1.4
				C676.6,199.2,676.4,199.4,676.2,199.4z"/>
			<path fill="#687D92" d="M680.2,271.4h-31.6c-0.3,0-0.5-0.2-0.5-0.5v-1.2c0-0.3,0.2-0.5,0.5-0.5h31.6c0.3,0,0.5,0.2,0.5,0.5v1.2
				C680.7,271.2,680.5,271.4,680.2,271.4z"/>
			<circle fill="#E3F4F8" stroke="#687D92" stroke-width="1.5" stroke-miterlimit="10" cx="664.8" cy="232.9" r="10"/>
			<circle fill="#A2C6D8" cx="666.4" cy="231.8" r="7"/>
		</g>
	</g>
	<path fill="#E3F4F8" stroke="#687D92" stroke-width="1.5" stroke-miterlimit="10" d="M775.5,280.4H554.2c-1,0-1.7-0.8-1.7-1.7v0
		c0-1,0.8-1.7,1.7-1.7h221.4c1,0,1.7,0.8,1.7,1.7v0C777.3,279.6,776.5,280.4,775.5,280.4z"/>
</g>
<g>
	<path fill="#687D92" d="M944.7,280.7H878v-21.5h66.7c5.9,0,10.7,4.8,10.7,10.7v0C955.4,275.9,950.6,280.7,944.7,280.7z"/>
	<path fill="#687D92" d="M943.8,262.6h-69.5c-0.9,0-1.7-0.8-1.7-1.7l0,0c0-0.9,0.8-1.7,1.7-1.7h69.5c0.9,0,1.7,0.8,1.7,1.7l0,0
		C945.5,261.8,944.7,262.6,943.8,262.6z"/>
	<path fill="#687D92" d="M943.8,280.7h-69.5c-0.9,0-1.7-0.8-1.7-1.7l0,0c0-0.9,0.8-1.7,1.7-1.7h69.5c0.9,0,1.7,0.8,1.7,1.7l0,0
		C945.5,279.9,944.7,280.7,943.8,280.7z"/>
	<path fill="#FFFFFF" d="M945.2,265.7h-64.5c-0.6,0-1.1-0.5-1.1-1.1l0,0c0-0.6,0.5-1.1,1.1-1.1h64.5c0.6,0,1.1,0.5,1.1,1.1l0,0
		C946.3,265.2,945.8,265.7,945.2,265.7z"/>
	<path fill="#FFFFFF" d="M945.4,271.7h-64.3c-0.7,0-1.2-0.5-1.2-1.2l0,0c0-0.7,0.5-1.2,1.2-1.2h64.3c0.7,0,1.2,0.5,1.2,1.2l0,0
		C946.6,271.1,946.1,271.7,945.4,271.7z"/>
	<path fill="#FFFFFF" d="M945.2,277.3h-64.6c-0.6,0-1.1-0.5-1.1-1.1l0,0c0-0.6,0.5-1.1,1.1-1.1h64.6c0.6,0,1.1,0.5,1.1,1.1l0,0
		C946.3,276.8,945.8,277.3,945.2,277.3z"/>
</g>
<g>
	<path fill="#687D92" d="M953.1,240.7h-74.6v-21.5h74.6c5.9,0,10.7,4.8,10.7,10.7v0C963.8,235.9,959,240.7,953.1,240.7z"/>
	<path fill="#687D92" d="M951.2,222.6h-76.9c-0.9,0-1.7-0.8-1.7-1.7l0,0c0-0.9,0.8-1.7,1.7-1.7h76.9c0.9,0,1.7,0.8,1.7,1.7l0,0
		C952.9,221.9,952.1,222.6,951.2,222.6z"/>
	<path fill="#687D92" d="M951.2,240.7h-76.9c-0.9,0-1.7-0.8-1.7-1.7v0c0-0.9,0.8-1.7,1.7-1.7h76.9c0.9,0,1.7,0.8,1.7,1.7v0
		C952.9,240,952.1,240.7,951.2,240.7z"/>
	<path fill="#FFFFFF" d="M952.7,225.7h-71.3c-0.6,0-1.1-0.5-1.1-1.1l0,0c0-0.6,0.5-1.1,1.1-1.1h71.3c0.6,0,1.1,0.5,1.1,1.1l0,0
		C953.7,225.2,953.3,225.7,952.7,225.7z"/>
	<path fill="#FFFFFF" d="M952.9,231.7h-71.1c-0.7,0-1.2-0.5-1.2-1.2l0,0c0-0.7,0.5-1.2,1.2-1.2h71.1c0.7,0,1.2,0.5,1.2,1.2l0,0
		C954.1,231.2,953.6,231.7,952.9,231.7z"/>
	<path fill="#FFFFFF" d="M952.7,237.4h-71.3c-0.6,0-1.1-0.5-1.1-1.1l0,0c0-0.6,0.5-1.1,1.1-1.1h71.3c0.6,0,1.1,0.5,1.1,1.1l0,0
		C953.7,236.9,953.3,237.4,952.7,237.4z"/>
</g>
<g>
	<path fill="#687D92" d="M931.1,259.8h-79.7V240h79.7c4.6,0,8.3,3.7,8.3,8.3v3.2C939.3,256.1,935.6,259.8,931.1,259.8z"/>
	<path fill="#687D92" d="M926.5,243.1h-79.6c-0.9,0-1.6-0.7-1.6-1.6l0,0c0-0.9,0.7-1.6,1.6-1.6h79.6c0.9,0,1.6,0.7,1.6,1.6l0,0
		C928,242.5,927.4,243.1,926.5,243.1z"/>
	<path fill="#687D92" d="M926.5,259.8h-79.6c-0.9,0-1.6-0.7-1.6-1.6l0,0c0-0.9,0.7-1.6,1.6-1.6h79.6c0.9,0,1.6,0.7,1.6,1.6l0,0
		C928,259.1,927.4,259.8,926.5,259.8z"/>
	<path fill="#FFFFFF" d="M928.1,246H854c-0.5,0-0.8-0.4-0.8-0.8v-0.3c0-0.5,0.4-0.8,0.8-0.8h74.1c0.5,0,0.8,0.4,0.8,0.8v0.3
		C928.9,245.6,928.5,246,928.1,246z"/>
	<path fill="#FFFFFF" d="M928.4,251.5h-73.9c-0.5,0-0.9-0.4-0.9-0.9v-0.4c0-0.5,0.4-0.9,0.9-0.9h73.9c0.5,0,0.9,0.4,0.9,0.9v0.4
		C929.3,251.1,928.9,251.5,928.4,251.5z"/>
	<path fill="#FFFFFF" d="M928.1,256.7H854c-0.5,0-0.8-0.4-0.8-0.8v-0.3c0-0.5,0.4-0.8,0.8-0.8h74.1c0.5,0,0.8,0.4,0.8,0.8v0.3
		C928.9,256.3,928.5,256.7,928.1,256.7z"/>
</g>
<g>
	<g>
		<path fill="#687D92" d="M933.4,185v5.9c2.9,0,5.2,2.3,5.2,5.2c0,2.9-2.3,5.2-5.2,5.2v5.9c6.1,0,11.1-5,11.1-11.1
			C944.5,190,939.5,185,933.4,185z"/>
		<path fill="#E4F4F8" d="M933.4,186.5v1.9c4.2,0,7.6,3.4,7.6,7.6c0,4.2-3.4,7.6-7.6,7.6v1.9c5.3,0,9.5-4.3,9.5-9.5
			C943,190.8,938.7,186.5,933.4,186.5z"/>
		<g>
			<path fill="#E3F4F8" d="M908.5,218.2c-7.8,0-14.2-6.4-14.2-14.2v-26.4h40.1V204c0,7.8-6.4,14.2-14.2,14.2H908.5z"/>
			<path fill="#687D92" d="M933.4,178.6V204c0,7.3-5.9,13.2-13.2,13.2h-11.7c-7.3,0-13.2-5.9-13.2-13.2v-25.4H933.4 M935.4,176.6h-2
				h-38.1h-2v2V204c0,8.4,6.8,15.2,15.2,15.2h11.7c8.4,0,15.2-6.8,15.2-15.2v-25.4V176.6L935.4,176.6z"/>
		</g>
		<path fill="none" d="M902.6,204.7v-28.4h-11.5v28.4c0,8.1,6.6,14.7,14.7,14.7h11.5C909.2,219.5,902.6,212.9,902.6,204.7z"/>
		<path fill="#A2C6D8" d="M933.4,204v-25.4h-27.7v27.8c0,6,4.8,10.8,10.8,10.8h3.7C927.5,217.2,933.4,211.3,933.4,204z"/>
	</g>
	<path fill="none" stroke="#687D92" stroke-width="2" stroke-linecap="round" stroke-miterlimit="10" d="M918.1,141.7
		c0,4.4,2,8.3,5.2,10.9c7.5,6.1,3.6,18.3-6.1,18.4c-0.1,0-0.2,0-0.3,0"/>
	<path fill="none" stroke="#687D92" stroke-width="2" stroke-linecap="round" stroke-miterlimit="10" d="M906.4,150.4
		c0-3.3-1.5-6.3-3.9-8.2c-5.6-4.6-2.7-13.8,4.6-13.9c0.1,0,0.1,0,0.2,0"/>
</g>
<g>
	
		<rect x="389.4" y="214" transform="matrix(0.8157 -0.5785 0.5785 0.8157 -68.8574 271.9312)" fill="#E3F4F8" stroke="#687D92" stroke-width="1.5" stroke-miterlimit="10" width="5.9" height="60.1"/>
	
		<rect x="399" y="152.9" transform="matrix(-0.7213 -0.6926 0.6926 -0.7213 559.468 607.3781)" fill="#E3F4F8" stroke="#687D92" stroke-width="1.5" stroke-miterlimit="10" width="5.9" height="76.4"/>
	<path fill="#E3F4F8" stroke="#687D92" stroke-width="1.5" stroke-miterlimit="10" d="M438,280.7c-4.8-9.9-14.9-16.7-26.6-16.7
		c-11.7,0-21.9,6.8-26.6,16.7H438z"/>
	<path fill="#A2C6D8" d="M409.5,265c-10.5,0.8-19.1,6.4-23.4,15.2l44.5-0.5C426.7,270.9,418.9,266.1,409.5,265z"/>
	<circle fill="#E3F4F8" stroke="#687D92" stroke-width="1.5" stroke-miterlimit="10" cx="375.2" cy="220.1" r="7.2"/>
	<path fill="#E3F4F8" stroke="#687D92" stroke-width="1.5" stroke-miterlimit="10" d="M484.4,163.4l-55.1,41.7l-1.4-5.1
		c-3.4-13,1.3-26.7,12-34.8l3.1-2.3c10.7-8.1,25.2-8.9,36.7-2.2L484.4,163.4z"/>
	<path fill="#E3F4F8" stroke="#687D92" stroke-width="1.5" stroke-miterlimit="10" d="M453.3,157.4l-21,15.9l-4.5-5.9
		c-4.4-5.8-3.2-14,2.5-18.4l0,0c5.8-4.4,14-3.2,18.4,2.5L453.3,157.4z"/>
</g>
<g>
	<path fill="#FFFFFF" stroke="#687D92" stroke-width="1.5" stroke-miterlimit="10" d="M509.8,265.6c-5.8,0-10.5,4.7-10.5,10.5h21
		C520.3,270.3,515.6,265.6,509.8,265.6z"/>
	<path fill="#A2C6D8" d="M509.8,268.6c-3.9,0-7,3.2-7,7h14.1C516.9,271.8,513.7,268.6,509.8,268.6z"/>
</g>
<path fill="none" stroke="#687D92" stroke-width="1.5" stroke-linecap="round" stroke-miterlimit="10" d="M671.3,98.1
	c2.7-2.7,6.9-2.7,9.6,0"/>
<path fill="none" stroke="#687D92" stroke-width="1.5" stroke-linecap="round" stroke-miterlimit="10" d="M635.3,98.1
	c2.7-2.7,6.9-2.7,9.6,0"/>
<circle fill="#687D92" cx="640.8" cy="105.8" r="2.3"/>
<circle fill="#687D92" cx="677.8" cy="105.8" r="2.3"/>
<g>
	<rect x="141" y="1" fill="#E3F4F8" stroke="#687D92" stroke-width="2" stroke-miterlimit="10" width="57.8" height="17.6"/>
	<rect x="139.9" y="50.8" fill="#E3F4F8" stroke="#687D92" stroke-width="2" stroke-miterlimit="10" width="57.8" height="17.6"/>
	<rect x="1" y="161.5" fill="#E3F4F8" stroke="#687D92" stroke-width="2" stroke-miterlimit="10" width="57.8" height="17.6"/>
	<rect x="116.3" y="210.6" fill="#E3F4F8" stroke="#687D92" stroke-width="2" stroke-miterlimit="10" width="57.8" height="17.6"/>
	<rect x="1125.3" y="171.4" fill="#E3F4F8" stroke="#687D92" stroke-width="2" stroke-miterlimit="10" width="57.8" height="17.6"/>
	<rect x="1074.9" y="115.4" fill="#E3F4F8" stroke="#687D92" stroke-width="2" stroke-miterlimit="10" width="57.8" height="17.6"/>
	<rect x="1196.2" y="55.7" fill="#E3F4F8" stroke="#687D92" stroke-width="2" stroke-miterlimit="10" width="57.8" height="17.6"/>
	<rect x="173.6" y="25.8" fill="#E3F4F8" stroke="#687D92" stroke-width="2" stroke-miterlimit="10" width="57.8" height="17.6"/>
	<rect x="108.5" y="25.8" fill="#E3F4F8" stroke="#687D92" stroke-width="2" stroke-miterlimit="10" width="57.8" height="17.6"/>
	<rect x="1230.3" y="289.9" fill="#E3F4F8" stroke="#687D92" stroke-width="2" stroke-miterlimit="10" width="57.8" height="17.6"/>
	<rect x="1264" y="264.9" fill="#E3F4F8" stroke="#687D92" stroke-width="2" stroke-miterlimit="10" width="57.8" height="17.6"/>
	<rect x="1198.9" y="264.9" fill="#E3F4F8" stroke="#687D92" stroke-width="2" stroke-miterlimit="10" width="57.8" height="17.6"/>
</g>
</svg>
