<!-- Generator: Adobe Illustrator 19.1.1, SVG Export Plug-In  -->
<svg version="1.1"
	 xmlns="http://www.w3.org/2000/svg" xmlns:xlink="http://www.w3.org/1999/xlink" xmlns:a="http://ns.adobe.com/AdobeSVGViewerExtensions/3.0/"
	 x="0px" y="0px" width="589.5px" height="590.5px" viewBox="0 0 589.5 590.5"
	 style="overflow:scroll;enable-background:new 0 0 589.5 590.5;" xml:space="preserve">
<style type="text/css">
	.st0{fill:#FFFFFF;}
	.st1{fill:#D1D3D4;}
	.st2{fill:#BCBEC0;}
	.st3{fill:#F3E9AD;}
	.st4{fill:#F1F2F2;stroke:#A7A9AC;stroke-width:2;stroke-miterlimit:10;}
	.st5{fill:#939598;}
	.st6{fill:none;stroke:#939598;stroke-width:2;stroke-miterlimit:10;}
	.st7{fill:#A7A9AC;}
	.st8{fill:#E6E7E8;stroke:#A7A9AC;stroke-width:2;stroke-miterlimit:10;}
	.st9{fill:#D1D3D4;stroke:#BCBEC0;stroke-miterlimit:10;}
	.st10{fill:#C2E8F9;stroke:#A1C6D3;stroke-width:2;stroke-miterlimit:10;}
	.st11{fill:#F1F2F2;stroke:#E6E7E8;stroke-miterlimit:10;}
	.st12{fill:#808285;}
	.st13{opacity:0.5;fill:#FFFFFF;}
	.st14{fill:#D1D3D4;stroke:#A7A9AC;stroke-width:2;stroke-miterlimit:10;}
	.st15{opacity:0.6;}
	.st16{fill:#FEFCE7;}
	.st17{fill:#E6E7E8;}
	.st18{fill:#FFFFFF;stroke:#A7A9AC;stroke-width:2;stroke-miterlimit:10;}
	.st19{fill:#BCBEC0;stroke:#A7A9AC;stroke-width:2;stroke-miterlimit:10;}
	.st20{opacity:0.3;fill:#FFFFFF;}
	.st21{fill:none;stroke:#E6E7E8;stroke-width:3;stroke-miterlimit:10;}
</style>
<defs>
</defs>
<g>
	<g>
		<g>
			<path class="st0" d="M254.5,177.3l-11-22.9V55.8c0-30.2,24.6-54.8,54.8-54.8c30.2,0,54.8,24.6,54.8,54.8v98.6l-11,22.9H254.5z"/>
			<path class="st1" d="M298.4,2c29.7,0,53.8,24.1,53.8,53.8v98.4l-10.6,22.1h-86.4l-10.6-22.1V55.8C244.6,26.1,268.7,2,298.4,2
				 M298.4,0L298.4,0c-30.8,0-55.8,25-55.8,55.8v98.8l11.3,23.6h89l11.3-23.6V55.8C354.2,25,329.2,0,298.4,0L298.4,0z"/>
		</g>
		<g>
			<g>
				<path class="st2" d="M270.9,93.4c3.9,0,7.1,3.2,7.1,7.1s-3.2,7.1-7.1,7.1c-3.9,0-7.1-3.2-7.1-7.1S267,93.4,270.9,93.4
					 M270.9,91.4c-5,0-9.1,4.1-9.1,9.1c0,5,4.1,9.1,9.1,9.1c5,0,9.1-4.1,9.1-9.1C280,95.5,275.9,91.4,270.9,91.4L270.9,91.4z"/>
			</g>
		</g>
		<rect x="290.8" y="129.6" class="st2" width="1.7" height="45.8"/>
		<rect x="304.5" y="129.6" class="st2" width="1.7" height="45.8"/>
		<polygon class="st2" points="292.6,129.6 291.2,130.6 274.9,108.3 276.3,107.3 		"/>
		<polygon class="st2" points="304.5,129.6 305.9,130.6 322.1,108.3 320.7,107.3 		"/>
		<g>
			<path class="st2" d="M326.3,93.4c3.9,0,7.1,3.2,7.1,7.1s-3.2,7.1-7.1,7.1c-3.9,0-7.1-3.2-7.1-7.1S322.4,93.4,326.3,93.4
				 M326.3,91.4c-5,0-9.1,4.1-9.1,9.1s4.1,9.1,9.1,9.1c5,0,9.1-4.1,9.1-9.1S331.3,91.4,326.3,91.4L326.3,91.4z"/>
		</g>
		<g>
			
				<rect x="282.7" y="75.2" transform="matrix(0.7071 0.7071 -0.7071 0.7071 141.3394 -176.2464)" class="st3" width="1.4" height="14.6"/>
			
				<rect x="293" y="74.9" transform="matrix(-0.7071 0.7071 -0.7071 -0.7071 560.1021 -65.6606)" class="st3" width="1.4" height="16.6"/>
			
				<rect x="303.7" y="74.9" transform="matrix(-0.7071 -0.7071 0.7071 -0.7071 460.8396 357.2272)" class="st3" width="1.4" height="16.6"/>
			
				<rect x="313.2" y="75.5" transform="matrix(-0.7071 0.7071 -0.7071 -0.7071 593.6024 -82.2654)" class="st3" width="1.4" height="12.7"/>
		</g>
	</g>
	<rect x="139" y="382.2" class="st4" width="317.3" height="199.5"/>
	<polygon class="st5" points="335.8,194.5 260.7,194.5 252.3,176.1 344.2,176.1 	"/>
	<g>
		<g>
			<path class="st6" d="M45,183.1v-35.6c0,0-0.2-18.8,18.8-18.8h0c16.4,0,32.1,6.5,43.6,18.1l80.6,80.6"/>
			<rect x="41.2" y="182.6" class="st7" width="7.8" height="6.7"/>
			<path class="st7" d="M45.8,176.9h-1.6c-2.6,0-4.6-2.1-4.6-4.6v0c0-2.6,2.1-4.6,4.6-4.6h1.6c2.6,0,4.6,2.1,4.6,4.6v0
				C50.4,174.8,48.3,176.9,45.8,176.9z"/>
			<path class="st8" d="M69.9,211.4c0,13.7-49.6,13.7-49.6,0s11.1-24.8,24.8-24.8S69.9,197.7,69.9,211.4z"/>
			<rect x="16" y="216.2" class="st4" width="58.2" height="288.4"/>
			<rect x="4.8" y="503.8" class="st8" width="80.4" height="6.2"/>
			<rect x="9.8" y="212.3" class="st8" width="70.6" height="4.8"/>
			<rect x="1" y="508.8" class="st4" width="88" height="11.5"/>
			<path class="st9" d="M32.7,461.6V262.5c0-6.8,5.5-12.3,12.3-12.3h0c6.8,0,12.3,5.5,12.3,12.3v199.1c0,6.8-5.5,12.3-12.3,12.3h0
				C38.2,473.9,32.7,468.4,32.7,461.6z"/>
			<path class="st10" d="M33.6,459.3V267.8c0-7.6,3.1-10.5,8.6-10.5l9.5-1.6c5.6,0,4.7,4.6,4.7,12.2v191.5c0,7.6-4.5,13.7-10.1,13.7
				h-2.7C38.1,473,33.6,466.8,33.6,459.3z"/>
			<circle class="st11" cx="38.7" cy="449.8" r="2"/>
			<circle class="st11" cx="41.2" cy="418.7" r="3.2"/>
			<circle class="st11" cx="49.2" cy="392.1" r="1.9"/>
			<circle class="st11" cx="48.9" cy="443.8" r="2.5"/>
			<circle class="st11" cx="43" cy="371.6" r="3.1"/>
			<circle class="st11" cx="42.3" cy="358.6" r="2.5"/>
			<circle class="st11" cx="39.8" cy="269.5" r="1.8"/>
			<circle class="st11" cx="47.2" cy="277.7" r="3.2"/>
			<circle class="st11" cx="39.6" cy="288.1" r="2.5"/>
			<rect x="3.9" y="171.5" class="st7" width="42.3" height="1.5"/>
			<circle class="st7" cx="3.9" cy="172.1" r="3"/>
		</g>
		
			<rect x="160.1" y="211.3" transform="matrix(0.7071 0.7071 -0.7071 0.7071 203.9864 -61.4202)" class="st12" width="32.1" height="8.4"/>
		
			<rect x="172.9" y="219.4" transform="matrix(0.7071 0.7071 -0.7071 0.7071 216.8318 -66.7409)" class="st5" width="32.1" height="17.9"/>
		<polygon class="st13" points="33.8,291.5 33.8,289.8 56.5,268.7 56.5,270.4 		"/>
		<polygon class="st13" points="33.8,302.1 33.8,297 56.5,275.9 56.5,281 		"/>
		<polygon class="st13" points="33.8,319.1 33.8,308.4 56.5,287.3 56.5,298 		"/>
	</g>
	<g>
		<g>
			<path class="st6" d="M544.5,183.1v-35.6c0,0,0.2-18.8-18.8-18.8h0c-16.4,0-32.1,6.5-43.6,18.1l-80.6,80.6"/>
			<rect x="540.5" y="182.6" class="st7" width="7.8" height="6.7"/>
			<path class="st7" d="M543.7,176.9h1.6c2.6,0,4.6-2.1,4.6-4.6v0c0-2.6-2.1-4.6-4.6-4.6h-1.6c-2.6,0-4.6,2.1-4.6,4.6v0
				C539.1,174.8,541.1,176.9,543.7,176.9z"/>
			<path class="st8" d="M519.6,211.4c0,13.7,49.6,13.7,49.6,0s-11.1-24.8-24.8-24.8C530.7,186.6,519.6,197.7,519.6,211.4z"/>
			<rect x="515.3" y="216.2" class="st4" width="58.2" height="312.2"/>
			<rect x="504.3" y="527.6" class="st8" width="80.4" height="6.2"/>
			<rect x="509.1" y="212.3" class="st8" width="70.6" height="4.8"/>
			<rect x="500.5" y="532.6" class="st4" width="88" height="11.5"/>
			<path class="st9" d="M556.8,485.3V262.5c0-6.8-5.5-12.3-12.3-12.3l0,0c-6.8,0-12.3,5.5-12.3,12.3v222.9c0,6.8,5.5,12.3,12.3,12.3
				l0,0C551.3,497.6,556.8,492.1,556.8,485.3z"/>
			<path class="st10" d="M555.9,483V267.8c0-7.6-3.1-10.5-8.6-10.5l-9.5-1.6c-5.6,0-4.7,4.6-4.7,12.2V483c0,7.6,4.5,13.7,10.1,13.7
				h2.7C551.4,496.7,555.9,490.6,555.9,483z"/>
			<circle class="st11" cx="550.8" cy="473.5" r="2"/>
			<circle class="st11" cx="548.3" cy="418.7" r="3.2"/>
			<circle class="st11" cx="540.3" cy="392.1" r="1.9"/>
			<circle class="st11" cx="540.6" cy="467.5" r="2.5"/>
			<circle class="st11" cx="546.5" cy="371.6" r="3.1"/>
			<circle class="st11" cx="547.2" cy="358.6" r="2.5"/>
			<circle class="st11" cx="549.7" cy="269.5" r="1.8"/>
			<circle class="st11" cx="542.3" cy="277.7" r="3.2"/>
			<circle class="st11" cx="549.9" cy="288.1" r="2.5"/>
			<rect x="543.3" y="171.5" class="st7" width="42.3" height="1.5"/>
			<circle class="st7" cx="585.6" cy="172.1" r="3"/>
		</g>
		
			<rect x="397.3" y="211.3" transform="matrix(-0.7071 0.7071 -0.7071 -0.7071 858.0451 75.6327)" class="st12" width="32.1" height="8.4"/>
		
			<rect x="384.4" y="219.4" transform="matrix(-0.7071 0.7071 -0.7071 -0.7071 845.1997 106.6442)" class="st5" width="32.1" height="17.9"/>
		<polygon class="st13" points="555.7,291.5 555.7,289.8 533,268.7 533,270.4 		"/>
		<polygon class="st13" points="555.7,302.1 555.7,297 533,275.9 533,281 		"/>
		<polygon class="st13" points="555.7,319.1 555.7,308.4 533,287.3 533,298 		"/>
	</g>
	<rect x="434.2" y="297.9" class="st14" width="30.9" height="84.4"/>
	<rect x="255" y="478.8" class="st14" width="84.4" height="30.9"/>
	<rect x="130.9" y="297.9" class="st14" width="29.7" height="84.4"/>
	<circle class="st8" cx="297.2" cy="340.8" r="155.2"/>
	<circle class="st14" cx="297.2" cy="340" r="134.8"/>
	<circle class="st7" cx="297.2" cy="340" r="118.6"/>
	<g class="st15">
		<path class="st16" d="M339.4,175.9h-80.9l-10.3-22.4V59.9c0-29.2,22.7-52.9,50.8-52.9h0c28,0,50.8,23.7,50.8,52.9v93.6
			L339.4,175.9z"/>
	</g>
	<circle class="st4" cx="297.2" cy="340" r="114.9"/>
	<circle class="st7" cx="297.2" cy="340" r="75.8"/>
	<circle class="st17" cx="297.2" cy="340" r="70.6"/>
	<path class="st10" d="M363.3,340c0,36.5-29.6,66.2-66.2,66.2S231,376.6,231,340c0-10.5,6.8-29.3,6.8-29.3s106.9-22.5,118-1.4
		C360.6,318.5,363.3,329,363.3,340z"/>
	<circle class="st11" cx="284.6" cy="382.2" r="5.5"/>
	<circle class="st11" cx="297.2" cy="330" r="8.3"/>
	<circle class="st11" cx="334.1" cy="358.4" r="4.6"/>
	<circle class="st11" cx="256.7" cy="334.7" r="3.7"/>
	<g>
		<g>
			<circle class="st8" cx="393.7" cy="339.9" r="8.1"/>
			
				<rect x="393" y="334.3" transform="matrix(-0.7071 -0.7071 0.7071 -0.7071 431.9081 858.7222)" class="st2" width="1.6" height="11.3"/>
		</g>
		<g>
			<circle class="st8" cx="202.9" cy="339.9" r="8.1"/>
			
				<rect x="202.2" y="334.3" transform="matrix(-0.7071 -0.7071 0.7071 -0.7071 106.2979 723.85)" class="st2" width="1.6" height="11.3"/>
		</g>
	</g>
	<g>
		<g>
			<circle class="st8" cx="298.3" cy="244.5" r="8.1"/>
			
				<rect x="297.5" y="238.8" transform="matrix(-0.7071 0.7071 -0.7071 -0.7071 682.0668 206.3076)" class="st2" width="1.6" height="11.3"/>
		</g>
		<g>
			<circle class="st8" cx="298.3" cy="435.3" r="8.1"/>
			
				<rect x="297.5" y="429.5" transform="matrix(-0.7071 0.7071 -0.7071 -0.7071 816.939 531.9178)" class="st2" width="1.6" height="11.3"/>
		</g>
	</g>
	<circle class="st8" cx="432" cy="477" r="6.4"/>
	<circle class="st18" cx="432.1" cy="504.2" r="6.4"/>
	<circle class="st19" cx="432.1" cy="529.5" r="6.4"/>
	<rect x="168.3" y="516.9" class="st19" width="3.9" height="19"/>
	<rect x="177.5" y="516.9" class="st19" width="3.9" height="19"/>
	<rect x="186.6" y="516.9" class="st19" width="3.9" height="19"/>
	<path class="st20" d="M357.7,330.7c0,33.4-121,33.4-121,0s27.1-60.5,60.5-60.5S357.7,297.3,357.7,330.7z"/>
	<rect x="72.2" y="578.8" class="st14" width="457.5" height="10.8"/>
	<path class="st21" d="M301.3,19.6c16.8-2.6,32.5,9,35.1,25.8"/>
</g>
</svg>
