<!-- Generator: Adobe Illustrator 19.1.1, SVG Export Plug-In  -->
<svg version="1.1"
	 xmlns="http://www.w3.org/2000/svg" xmlns:xlink="http://www.w3.org/1999/xlink" xmlns:a="http://ns.adobe.com/AdobeSVGViewerExtensions/3.0/"
	 x="0px" y="0px" width="1139px" height="491.9px" viewBox="0 0 1139 491.9"
	 style="overflow:scroll;enable-background:new 0 0 1139 491.9;" xml:space="preserve">
<style type="text/css">
	.st0{fill:#E06D94;stroke:#BA5A7F;stroke-miterlimit:10;}
	.st1{opacity:0.2;fill:#E06D94;}
	.st2{fill:#AAD69D;stroke:#92BC84;stroke-miterlimit:10;}
	.st3{opacity:0.2;fill:#AAD69C;}
	.st4{fill:#C2E8F9;stroke:#A1C6D3;stroke-miterlimit:10;}
	.st5{opacity:0.2;fill:#C2E8F9;}
	.st6{fill:#E6E7E8;stroke:#A7A9AC;stroke-width:2;stroke-miterlimit:10;}
	.st7{fill:#F1F2F2;stroke:#A7A9AC;stroke-miterlimit:10;}
	.st8{fill:#A7A9AC;stroke:#A7A9AC;stroke-miterlimit:10;}
	.st9{fill:#E6E7E8;stroke:#BA5A7F;stroke-miterlimit:10;}
	.st10{opacity:0.2;fill:#FFFFFF;}
	.st11{fill:#FEF384;stroke:#D5C862;stroke-miterlimit:10;}
	.st12{fill:#F1F2F2;stroke:#D5C862;stroke-miterlimit:10;}
	.st13{fill:none;stroke:#A7A9AC;stroke-width:3;stroke-miterlimit:10;}
	.st14{fill:#D1D3D4;stroke:#A7A9AC;stroke-width:2;stroke-miterlimit:10;}
	.st15{fill:#F1F2F2;stroke:#A7A9AC;stroke-width:2;stroke-miterlimit:10;}
	.st16{fill:#BCBEC0;stroke:#A7A9AC;stroke-width:2;stroke-miterlimit:10;}
	.st17{fill:#F1F2F2;stroke:#A1C6D3;stroke-miterlimit:10;}
	.st18{fill:#F1F2F2;stroke:#92BC84;stroke-miterlimit:10;}
	.st19{fill:#FFFFFF;stroke:#A7A9AC;stroke-width:2;stroke-miterlimit:10;}
	.st20{fill:none;stroke:#A7A9AC;stroke-width:2;stroke-miterlimit:10;}
	.st21{opacity:0.2;fill:#F1F2F2;stroke:#A7A9AC;stroke-miterlimit:10;}
	.st22{opacity:0.2;fill:#FEF387;}
	.st23{opacity:0.2;fill:#939598;}
	.st24{fill:#939598;}
	.st25{fill:#808285;}
	.st26{fill:#E6E7E8;stroke:#BCBEC0;stroke-width:2;stroke-miterlimit:10;}
	.st27{fill:#FFFFFF;stroke:#E6E7E8;stroke-miterlimit:10;}
	.st28{fill:none;stroke:#D1D3D4;stroke-width:2;stroke-miterlimit:10;}
	.st29{fill:#D1D3D4;}
	.st30{fill:#F1F2F2;stroke:#E6E7E8;stroke-miterlimit:10;}
	.st31{fill:#E6E7E8;}
</style>
<defs>
</defs>
<g>
	<path class="st0" d="M53.3,49.2L53.3,49.2c1.8-1.8,4.7-1.8,6.5,0l0,0c2.9,2.9,0.8,7.9-3.3,7.9h0C52.5,57,50.4,52.1,53.3,49.2z"/>
	<path class="st1" d="M45.8,37.6l6.2,6.3c0.5,0.5,0.5,1.3,0,1.8l0,0c-0.5,0.5-1.3,0.5-1.8,0l-6.2-6.3c-0.5-0.5-0.5-1.3,0-1.8l0,0
		C44.5,37.1,45.3,37.1,45.8,37.6z"/>
	<path class="st1" d="M69.7,39.5l-6.3,6.2c-0.5,0.5-1.3,0.5-1.8,0h0c-0.5-0.5-0.5-1.3,0-1.8l6.3-6.2c0.5-0.5,1.3-0.5,1.8,0l0,0
		C70.2,38.2,70.2,39,69.7,39.5z"/>
	<path class="st1" d="M57.9,38.7l0,4.6c0,0.7-0.6,1.3-1.3,1.3h0c-0.7,0-1.3-0.6-1.3-1.3l0-4.6c0-0.7,0.6-1.3,1.3-1.3l0,0
		C57.3,37.4,57.9,38,57.9,38.7z"/>
	<path class="st2" d="M870.9,11.9L870.9,11.9c1.8-1.8,4.7-1.8,6.5,0v0c2.9,2.9,0.8,7.9-3.3,7.9l0,0C870,19.8,868,14.8,870.9,11.9z"
		/>
	<path class="st3" d="M863.4,0.4l6.2,6.3c0.5,0.5,0.5,1.3,0,1.8v0c-0.5,0.5-1.3,0.5-1.8,0l-6.2-6.3c-0.5-0.5-0.5-1.3,0-1.8v0
		C862-0.1,862.9-0.1,863.4,0.4z"/>
	<path class="st3" d="M887.3,2.3L881,8.4c-0.5,0.5-1.3,0.5-1.8,0v0c-0.5-0.5-0.5-1.3,0-1.8l6.3-6.2c0.5-0.5,1.3-0.5,1.8,0v0
		C887.8,0.9,887.8,1.8,887.3,2.3z"/>
	<path class="st3" d="M875.5,1.4l0,4.6c0,0.7-0.6,1.3-1.3,1.3l0,0c-0.7,0-1.3-0.6-1.3-1.3l0-4.6c0-0.7,0.6-1.3,1.3-1.3v0
		C874.9,0.1,875.5,0.7,875.5,1.4z"/>
	<path class="st4" d="M1080.1,11.9L1080.1,11.9c1.8-1.8,4.7-1.8,6.5,0v0c2.9,2.9,0.8,7.9-3.3,7.9l0,0
		C1079.3,19.8,1077.2,14.8,1080.1,11.9z"/>
	<path class="st5" d="M1072.6,0.4l6.2,6.3c0.5,0.5,0.5,1.3,0,1.8v0c-0.5,0.5-1.3,0.5-1.8,0l-6.2-6.3c-0.5-0.5-0.5-1.3,0-1.8v0
		C1071.3-0.1,1072.1-0.1,1072.6,0.4z"/>
	<path class="st5" d="M1096.5,2.3l-6.3,6.2c-0.5,0.5-1.3,0.5-1.8,0v0c-0.5-0.5-0.5-1.3,0-1.8l6.3-6.2c0.5-0.5,1.3-0.5,1.8,0v0
		C1097,0.9,1097,1.8,1096.5,2.3z"/>
	<path class="st5" d="M1084.7,1.4l0,4.6c0,0.7-0.6,1.3-1.3,1.3l0,0c-0.7,0-1.3-0.6-1.3-1.3l0-4.6c0-0.7,0.6-1.3,1.3-1.3v0
		C1084.1,0.1,1084.7,0.7,1084.7,1.4z"/>
	<path class="st6" d="M447.1,456h-39.5c-9.9,0-17.9-8-17.9-17.9V291.6c0-11.6-10.8-21.1-24-21.1H81.1c-22.1,0-40.1-15.7-40.1-35.2
		v-21.3h30.6v15.5c0,7.8,7.2,14.1,16.1,14.1h161.2v-34h30.7v34h97.2c22.1,0,40.1,15.7,40.1,35.1V418c0,4,3.3,7.3,7.3,7.3h23.1V456z"
		/>
	<rect x="107.3" y="243.7" class="st7" width="6.3" height="26.9"/>
	<rect x="203" y="243.7" class="st7" width="6.3" height="26.9"/>
	<rect x="331.9" y="243.7" class="st7" width="6.3" height="26.9"/>
	<rect x="389.9" y="306.4" class="st7" width="26.9" height="6.3"/>
	<rect x="389.9" y="390.3" class="st7" width="26.9" height="6.3"/>
	<rect x="722.3" y="257.7" class="st7" width="26.9" height="6.3"/>
	<rect x="722.3" y="390.3" class="st7" width="26.9" height="6.3"/>
	<rect x="0.5" y="205.3" class="st8" width="111.8" height="8.8"/>
	<rect x="0.5" y="52" class="st8" width="111.8" height="8.8"/>
	<rect x="11.2" y="60.7" class="st7" width="90.4" height="144.5"/>
	<path class="st0" d="M101.6,116.8l-15.7-7.5c-8.1-3.9-17.9-4.5-26.4-1.1l-0.2,0.1l-19.4,9.9c-5.9,2.4-12.9,1.5-17.8-2.3l-10.9-8.5
		v97.9h90.4V116.8z"/>
	<circle class="st9" cx="26" cy="139.9" r="3.4"/>
	<circle class="st9" cx="61.8" cy="155.6" r="3.4"/>
	<circle class="st9" cx="39.4" cy="182" r="4.9"/>
	<circle class="st9" cx="79.3" cy="177.9" r="6"/>
	<circle class="st9" cx="79.3" cy="123.7" r="6.4"/>
	<rect x="208.3" y="205.3" class="st8" width="111.8" height="8.8"/>
	<polygon class="st10" points="102.2,60.8 102.2,60.8 29.9,206 102.2,206 	"/>
	<rect x="219" y="60.7" class="st7" width="90.4" height="144.5"/>
	<path class="st11" d="M309.4,150l-15.7-4.7c-8.1-2.4-17.9-2.8-26.4-0.7l-0.2,0l-19.4,6.2c-5.9,1.5-12.9,1-17.8-1.4l-10.9-5.3v61.2
		h90.4V150z"/>
	<circle class="st12" cx="256.3" cy="162.3" r="3.4"/>
	<path class="st13" d="M669.8,379.1c40.7,15.7,37.9,36.3,51,61.7c17.4,33.6,51.1,9.9,79,13.6c8.3,1.1,21.1,7.5,33.6,10.3
		c5.6,1.3,10.3,1.3,13.4,1.2"/>
	<circle class="st12" cx="237.1" cy="187" r="4.9"/>
	<rect x="350.3" y="478.4" class="st14" width="439.9" height="12.5"/>
	<circle class="st12" cx="285" cy="171.9" r="6"/>
	<rect x="887.2" y="358.6" class="st6" width="39.3" height="34.7"/>
	<polygon class="st10" points="309.9,61.2 309.9,61.2 237.6,205.7 309.9,205.7 	"/>
	<rect x="453.8" y="304.6" class="st15" width="232.9" height="173.9"/>
	<rect x="639.3" y="443.8" class="st16" width="3.9" height="18.7"/>
	<rect x="648.4" y="443.8" class="st16" width="3.9" height="18.7"/>
	<rect x="657.3" y="443.8" class="st16" width="3.9" height="18.7"/>
	<rect x="447.4" y="416" class="st8" width="5.9" height="50.1"/>
	<path class="st6" d="M691.9,456h39.5c9.9,0,17.9-8,17.9-17.9v-183c0-11.6,10.8-21.1,24-21.1h284.7c22.1,0,40.1-15.7,40.1-35.2
		v-21.3h-30.6v15.5c0,7.8-7.2,14.1-16.1,14.1H890.1v-34h-30.7v34h-97.2c-22.1,0-40.1,15.7-40.1,35.1V418c0,4-3.3,7.3-7.3,7.3h-23.1
		V456z"/>
	<rect x="1026.7" y="168.8" class="st8" width="111.8" height="8.8"/>
	<rect x="1026.7" y="15.5" class="st8" width="111.8" height="8.8"/>
	<rect x="1037.4" y="24.2" class="st7" width="90.4" height="144.5"/>
	<path class="st4" d="M1037.4,140.9l15.7-2.4c8.1-1.2,17.9-1.4,26.4-0.3l0.2,0l19.4,3.1c5.9,0.8,12.9,0.5,17.8-0.7l10.9-2.7v30.9
		h-90.4V140.9z"/>
	<circle class="st17" cx="1074.7" cy="158.9" r="3.4"/>
	<circle class="st17" cx="1096.6" cy="150.5" r="4.9"/>
	<circle class="st17" cx="1057.2" cy="148" r="2.5"/>
	<rect x="818.9" y="168.8" class="st8" width="111.8" height="8.8"/>
	<rect x="818.9" y="15.5" class="st8" width="111.8" height="8.8"/>
	<polygon class="st10" points="1036.9,24.2 1036.9,24.2 1109.1,168.8 1036.9,168.8 	"/>
	<rect x="721.9" y="266.3" class="st7" width="26.9" height="6.3"/>
	<rect x="829.6" y="24.2" class="st7" width="90.4" height="144.5"/>
	<path class="st2" d="M829.6,51.5l15.7-10c8.1-5.2,17.9-6,26.4-1.5l0.2,0.1l2.9,2c13.6,9.2,31.4,9.2,44.9,0.1
		C919.9,42,920,42,920,42v126.8h-90.4V51.5z"/>
	<circle class="st18" cx="882.7" cy="125.8" r="3.4"/>
	<circle class="st18" cx="894.1" cy="102.9" r="5.8"/>
	<circle class="st18" cx="866.8" cy="89.9" r="2.1"/>
	<circle class="st18" cx="901.9" cy="150.5" r="4.9"/>
	<circle class="st18" cx="901.9" cy="59.2" r="4.9"/>
	<circle class="st18" cx="848" cy="143.5" r="6"/>
	<circle class="st18" cx="842" cy="113.6" r="4.8"/>
	<polygon class="st10" points="829.1,24.8 829.1,24.8 901.4,169.3 829.1,169.3 	"/>
	<rect x="686.7" y="415.7" class="st8" width="5.9" height="50.1"/>
	<rect x="899.1" y="368.4" class="st15" width="3.9" height="15.1"/>
	<rect x="910.9" y="368.4" class="st15" width="3.9" height="15.1"/>
	<path class="st16" d="M482.9,334.7H481c-2.4,0-4.3-1.9-4.3-4.3v-1.9c0-2.4,1.9-4.3,4.3-4.3h1.9c2.4,0,4.3,1.9,4.3,4.3v1.9
		C487.2,332.8,485.2,334.7,482.9,334.7z"/>
	<rect x="809.2" y="207.2" class="st7" width="6.3" height="26.9"/>
	<rect x="918.3" y="207.2" class="st7" width="6.3" height="26.9"/>
	<rect x="1027.7" y="207.2" class="st7" width="6.3" height="26.9"/>
	<path class="st19" d="M501.4,334.7h-1.9c-2.4,0-4.3-1.9-4.3-4.3v-1.9c0-2.4,1.9-4.3,4.3-4.3h1.9c2.4,0,4.3,1.9,4.3,4.3v1.9
		C505.7,332.8,503.8,334.7,501.4,334.7z"/>
	<path class="st6" d="M519.5,334.7h-1.9c-2.4,0-4.3-1.9-4.3-4.3v-1.9c0-2.4,1.9-4.3,4.3-4.3h1.9c2.4,0,4.3,1.9,4.3,4.3v1.9
		C523.8,332.8,521.8,334.7,519.5,334.7z"/>
	<rect x="563.7" y="325.7" class="st19" width="95.6" height="62.4"/>
	<path class="st11" d="M260.5,49.2L260.5,49.2c1.8-1.8,4.7-1.8,6.5,0v0c2.9,2.9,0.8,7.9-3.3,7.9l0,0C259.6,57,257.6,52.1,260.5,49.2
		z"/>
	<path class="st20" d="M579.3,367c6.7-11.3,15.6-22.8,24-21.5c10,1.5,12.1,20.4,21.2,21.2c4.6,0.4,11.3-3.7,20.5-23.1"/>
	<ellipse class="st19" cx="579.3" cy="367" rx="2.6" ry="2.7"/>
	<ellipse class="st19" cx="645.1" cy="343.6" rx="2.6" ry="2.7"/>
	<rect x="563.7" y="334.7" class="st21" width="95.6" height="2.4"/>
	<rect x="563.7" y="345.8" class="st21" width="95.6" height="2.4"/>
	<rect x="563.7" y="357" class="st21" width="95.6" height="2.4"/>
	<rect x="208.3" y="52" class="st8" width="111.8" height="8.8"/>
	<rect x="563.7" y="367.8" class="st21" width="95.6" height="2.4"/>
	<rect x="563.7" y="379.4" class="st21" width="95.6" height="2.4"/>
	<path class="st22" d="M252.9,37.6l6.2,6.3c0.5,0.5,0.5,1.3,0,1.8l0,0c-0.5,0.5-1.3,0.5-1.8,0l-6.2-6.3c-0.5-0.5-0.5-1.3,0-1.8v0
		C251.6,37.1,252.4,37.1,252.9,37.6z"/>
	<path class="st22" d="M276.8,39.5l-6.3,6.2c-0.5,0.5-1.3,0.5-1.8,0l0,0c-0.5-0.5-0.5-1.3,0-1.8l6.3-6.2c0.5-0.5,1.3-0.5,1.8,0v0
		C277.3,38.2,277.3,39,276.8,39.5z"/>
	<path class="st22" d="M265.1,38.7l0,4.6c0,0.7-0.6,1.3-1.3,1.3h0c-0.7,0-1.3-0.6-1.3-1.3l0-4.6c0-0.7,0.6-1.3,1.3-1.3l0,0
		C264.5,37.4,265.1,38,265.1,38.7z"/>
	<g>
		<rect x="875.5" y="458.3" class="st8" width="8.3" height="2.7"/>
		<rect x="875.5" y="471.7" class="st8" width="8.3" height="2.7"/>
	</g>
	<path class="st15" d="M860.1,449.6h16.1v33.5h-16.1c-7.6,0-13.8-6.2-13.8-13.8v-6C846.3,455.7,852.5,449.6,860.1,449.6z"/>
	<rect x="865.5" y="450.5" class="st23" width="2.9" height="31.6"/>
	<path class="st8" d="M611.5,304.1H529v-1.8c0-4.6,3.7-8.4,8.4-8.4h65.7c4.6,0,8.4,3.7,8.4,8.4V304.1z"/>
	<rect x="547.4" y="272.4" class="st24" width="45.7" height="16.8"/>
	<rect x="539.4" y="288.2" class="st25" width="60.1" height="5.2"/>
	<circle class="st26" cx="570.2" cy="237.8" r="44"/>
	<circle class="st27" cx="570.2" cy="237.8" r="37.4"/>
	<line class="st28" x1="570.3" y1="238.1" x2="591.7" y2="216.7"/>
	<circle class="st29" cx="590.8" cy="217.7" r="3.5"/>
	<circle class="st30" cx="570.2" cy="237.8" r="7"/>
	<rect x="568.6" y="200.7" class="st31" width="3.2" height="5.8"/>
	<rect x="568.6" y="269.7" class="st31" width="3.2" height="5.8"/>
	<rect x="600.6" y="236.5" class="st31" width="7.1" height="3.2"/>
	<rect x="532.8" y="236.5" class="st31" width="7.1" height="3.2"/>
</g>
</svg>
