<!-- Generator: Adobe Illustrator 19.1.1, SVG Export Plug-In  -->
<svg version="1.1"
	 xmlns="http://www.w3.org/2000/svg" xmlns:xlink="http://www.w3.org/1999/xlink" xmlns:a="http://ns.adobe.com/AdobeSVGViewerExtensions/3.0/"
	 x="0px" y="0px" width="926.7px" height="559px" viewBox="0 0 926.7 559"
	 style="overflow:scroll;enable-background:new 0 0 926.7 559;" xml:space="preserve">
<style type="text/css">
	.st0{fill:none;stroke:#D1D3D4;stroke-width:2;stroke-linecap:round;stroke-miterlimit:10;}
	.st1{fill:none;stroke:#D1D3D4;stroke-width:2;stroke-linecap:round;stroke-miterlimit:10;stroke-dasharray:11.5922,11.5922;}
	.st2{fill:none;stroke:#D1D3D4;stroke-width:2;stroke-linecap:round;stroke-miterlimit:10;stroke-dasharray:11.5648,11.5648;}
	.st3{fill:#68A778;}
	.st4{fill:#7FC892;stroke:#68A778;stroke-width:3;stroke-miterlimit:10;}
	.st5{fill:#FFFFFF;}
	.st6{fill:#ECC3AA;stroke:#AF8C7D;stroke-width:2;stroke-miterlimit:10;}
	.st7{fill:#FFFFFF;stroke:#F1F2F2;stroke-width:5;stroke-miterlimit:10;}
	.st8{fill:#D8D9D8;}
	.st9{fill:#F0EFEF;}
	.st10{fill:#2C424E;}
	.st11{fill:#415F6E;}
	.st12{fill:#4F6C79;}
	.st13{fill:#BFC3C5;}
	.st14{fill:#F1F2F2;}
	.st15{fill:#E4E6E6;}
	.st16{fill:#344D5A;}
	.st17{fill:#F7F8F8;}
	.st18{fill:#344E5C;}
	.st19{fill:#EEC75E;}
	.st20{fill:#566D78;}
	.st21{fill:#DCDDDD;}
	.st22{fill:#E2584C;}
	.st23{fill:#3DB39E;}
	.st24{fill:#349886;}
</style>
<defs>
</defs>
<g>
	<g>
		<path class="st0" d="M171.6,404.7c0,0,1.2,1.9,3.5,4.9"/>
		<path class="st1" d="M182.7,418.3c12,12.2,33.8,28.2,65.6,28.2c37.2,0,64.9-14.4,78.6-23.4"/>
		<path class="st0" d="M331.7,419.7c3.1-2.3,4.7-3.7,4.7-3.7"/>
	</g>
</g>
<g>
	<g>
		<path class="st0" d="M754.4,394.7c0,0-1.2,1.9-3.5,4.9"/>
		<path class="st1" d="M743.3,408.3c-12,12.2-33.8,28.2-65.6,28.2c-37.2,0-64.9-14.4-78.6-23.4"/>
		<path class="st0" d="M594.4,409.7c-3.1-2.3-4.7-3.7-4.7-3.7"/>
	</g>
</g>
<g>
	<g>
		<path class="st0" d="M273.9,182.3c0,0,0.2,2.2,0.8,5.9"/>
		<path class="st2" d="M276.6,199.6c4.8,26.6,17,77.3,43,103.3c30,30,91.4,57.2,116.4,67.4"/>
		<path class="st0" d="M441.4,372.6c3.6,1.4,5.6,2.2,5.6,2.2"/>
	</g>
</g>
<g>
	<g>
		<path class="st0" d="M659.6,182.3c0,0-0.2,2.2-0.8,5.9"/>
		<path class="st2" d="M657,199.6c-4.8,26.6-17,77.3-43,103.3c-30,30-91.4,57.2-116.4,67.4"/>
		<path class="st0" d="M492.2,372.6c-3.6,1.4-5.6,2.2-5.6,2.2"/>
	</g>
</g>
<g>
	<path class="st3" d="M559.2,445.2h-188c-18.8,0-34.1-15.3-34.1-34.1v0c0-18.8,15.3-34.1,34.1-34.1h188c18.8,0,34.1,15.3,34.1,34.1
		v0C593.3,430,578.1,445.2,559.2,445.2z"/>
	<path class="st4" d="M559.2,440.6h-188c-18.8,0-34.1-15.3-34.1-34.1v0c0-18.8,15.3-34.1,34.1-34.1h188c18.8,0,34.1,15.3,34.1,34.1
		v0C593.3,425.3,578.1,440.6,559.2,440.6z"/>
	<g>
		<path class="st5" d="M424.2,414.8v-17h7.9c3.7,0,5.7,2.5,5.7,5.5c0,3-2,5.5-5.7,5.5h-4.3v6H424.2z M434.2,403.3
			c0-1.4-1.1-2.3-2.5-2.3h-3.8v4.6h3.8C433.1,405.6,434.2,404.7,434.2,403.3z"/>
		<path class="st5" d="M448.4,414.8v-1.6c-0.8,0.9-2.3,1.9-4.3,1.9c-2.7,0-4-1.5-4-3.9v-8.7h3.2v7.5c0,1.7,0.9,2.3,2.3,2.3
			c1.2,0,2.2-0.7,2.8-1.4v-8.3h3.2v12.3H448.4z"/>
		<path class="st5" d="M454.8,414.8v-17h3.2v6.3c1-1.2,2.3-1.9,3.8-1.9c3.1,0,5.5,2.4,5.5,6.5c0,4.1-2.3,6.4-5.5,6.4
			c-1.5,0-2.8-0.7-3.8-1.9v1.6H454.8z M460.8,412.3c1.9,0,3.1-1.4,3.1-3.6c0-2.1-1.2-3.6-3.1-3.6c-1,0-2.2,0.6-2.8,1.4v4.4
			C458.6,411.7,459.8,412.3,460.8,412.3z"/>
		<path class="st5" d="M469.7,414.8v-17h3.2v17H469.7z"/>
		<path class="st5" d="M475.8,399.3c0-1.1,0.9-1.9,1.9-1.9c1.1,0,1.9,0.8,1.9,1.9c0,1.1-0.9,1.9-1.9,1.9
			C476.7,401.2,475.8,400.3,475.8,399.3z M476.2,414.8v-12.3h3.2v12.3H476.2z"/>
		<path class="st5" d="M481.5,413.2l1.4-2.3c0.9,0.8,2.7,1.7,4.3,1.7c1.4,0,2.1-0.6,2.1-1.3c0-2-7.3-0.4-7.3-5.2
			c0-2.1,1.8-3.9,5-3.9c2.1,0,3.7,0.7,5,1.7l-1.3,2.2c-0.7-0.8-2.1-1.4-3.6-1.4c-1.2,0-1.9,0.5-1.9,1.2c0,1.8,7.3,0.3,7.3,5.3
			c0,2.2-1.9,3.9-5.3,3.9C484.9,415.1,482.8,414.4,481.5,413.2z"/>
		<path class="st5" d="M503.1,414.8v-7.5c0-1.7-0.9-2.2-2.3-2.2c-1.2,0-2.2,0.7-2.8,1.5v8.3h-3.2v-17h3.2v6.3
			c0.8-0.9,2.3-1.9,4.3-1.9c2.7,0,4,1.5,4,3.9v8.7H503.1z"/>
	</g>
</g>
<g>
	<path class="st6" d="M525.5,473.1L525.5,473.1c-5.1,0-9.3,4.1-9.3,9.3v7.5h-0.9v-17.2c0-5.1-4.1-9.3-9.3-9.3l0,0
		c-5.1,0-9.3,4.1-9.3,9.3v17.2h-0.7v-26.1c0-5.1-4.1-9.3-9.3-9.3h0c-5.1,0-9.3,4.1-9.3,9.3v26.1H477v-54.7c0-5.4-4.4-9.8-9.8-9.8
		s-9.8,4.4-9.8,9.8v82.1l-8.8-8.8c-3.8-3.8-10-3.8-13.8,0h0c-3.8,3.8-3.8,10,0,13.8l26.5,26.5h0c4.5,5.5,14.2,9.2,25.4,9.2
		c4.2,0,8.1-0.5,11.7-1.5c19.2-3,34.2-18.7,36.1-38.2l0.2-0.2V514v-24.1v-7.5C534.7,477.3,530.6,473.1,525.5,473.1z"/>
	<circle class="st5" cx="467.2" cy="435.7" r="6.6"/>
</g>
<g>
	<path class="st7" d="M656,2.5c-49.7,0-90,40.3-90,90c0,49.7,40.3,90,90,90c49.7,0,90-40.3,90-90C746,42.8,705.8,2.5,656,2.5z"/>
	<path class="st8" d="M690.2,43.9h-14.4c-1,0-1.8,0.8-1.8,1.8v1.8h18v-1.8C692,44.7,691.2,43.9,690.2,43.9z M600.2,76.3v10.8
		c0,1,0.8,1.8,1.8,1.8h1.8V74.5H602C601.1,74.5,600.2,75.3,600.2,76.3z M600.2,101.5v5.4c0,1,0.8,1.8,1.8,1.8h1.8v-9H602
		C601.1,99.7,600.2,100.5,600.2,101.5z M600.2,119.5v5.4c0,1,0.8,1.8,1.8,1.8h1.8v-9H602C601.1,117.7,600.2,118.5,600.2,119.5z"/>
	<path class="st9" d="M695.6,45.7h-79.2c-8,0-14.4,6.4-14.4,14.4v104.4c15,11.3,33.7,18,54,18s39-6.7,54-18V60.1
		C710,52.1,703.6,45.7,695.6,45.7z"/>
	<path class="st10" d="M699.2,76.3h-86.4c-2,0-3.6,1.6-3.6,3.6v89.5c13.6,8.3,29.7,13.1,46.8,13.1s33.2-4.8,46.8-13.1V79.9
		C702.8,77.9,701.2,76.3,699.2,76.3z"/>
	<path class="st11" d="M612.8,171.5c12.8,7,27.5,11,43.2,11c15.7,0,30.4-4,43.2-11V79.9h-86.4V171.5z"/>
	<path class="st12" d="M667.8,122.6c-1.5-2-3.6-3.1-5.6-3.1c-2.6,0-3.8,1.3-5.6,1.3c-1.9,0-3.3-1.3-5.6-1.3c-2.3,0-4.6,1.4-6.2,3.9
		c-2.1,3.4-1.8,9.9,1.7,15.4c1.2,2,2.9,4.2,5.1,4.2c1.9,0,2.5-1.3,5.1-1.3c2.6,0,3.1,1.3,5,1.3c2.2,0,3.9-2.5,5.1-4.4
		c0.9-1.4,1.2-2.1,1.9-3.7C663.6,132.8,662.8,125.4,667.8,122.6L667.8,122.6z M660.1,117.3c1-1.3,1.7-3.1,1.4-5
		c-1.6,0.1-3.4,1.2-4.5,2.5c-1,1.2-1.8,3.1-1.5,4.8C657.3,119.7,659.1,118.6,660.1,117.3z"/>
	<path class="st13" d="M665,63.7h-16.2c-1,0-1.8,0.8-1.8,1.8c0,1,0.8,1.8,1.8,1.8H665c1,0,1.8-0.8,1.8-1.8
		C666.8,64.5,666,63.7,665,63.7z M656.9,60.1c1.5,0,2.7-1.2,2.7-2.7c0-1.5-1.2-2.7-2.7-2.7c-1.5,0-2.7,1.2-2.7,2.7
		C654.2,58.9,655.5,60.1,656.9,60.1z"/>
</g>
<g>
	<g>
		<path class="st5" d="M95,448.8c-51,0-92.5-41.5-92.5-92.5S44,263.8,95,263.8s92.5,41.5,92.5,92.5S146,448.8,95,448.8z"/>
		<path class="st14" d="M95,266.3c49.7,0,90,40.3,90,90c0,49.7-40.3,90-90,90c-49.7,0-90-40.3-90-90C5,306.6,45.3,266.3,95,266.3
			 M95,261.3c-52.4,0-95,42.6-95,95s42.6,95,95,95c52.4,0,95-42.6,95-95S147.4,261.3,95,261.3L95,261.3z"/>
	</g>
	<path class="st15" d="M136.4,309.5H53.6c-7,0-12.6,5.6-12.6,12.6v106.2c15,11.3,33.7,18,54,18c20.3,0,39-6.7,54-18V322.1
		C149,315.2,143.4,309.5,136.4,309.5z"/>
	<path class="st16" d="M141.8,331.1H48.2c-1,0-1.8,0.8-1.8,1.8v99.1c14,9,30.7,14.3,48.6,14.3c17.9,0,34.6-5.3,48.6-14.3v-99.1
		C143.6,331.9,142.8,331.1,141.8,331.1z"/>
	<path class="st11" d="M140,334.7H50v99.5c13.2,7.7,28.6,12.1,45,12.1c16.4,0,31.8-4.4,45-12.1V334.7z"/>
	<path class="st13" d="M104,316.7H86c-1,0-1.8,0.8-1.8,1.8c0,1,0.8,1.8,1.8,1.8h18c1,0,1.8-0.8,1.8-1.8
		C105.8,317.5,105,316.7,104,316.7z M111.2,316.7c-1,0-1.8,0.8-1.8,1.8c0,1,0.8,1.8,1.8,1.8c1,0,1.8-0.8,1.8-1.8
		C113,317.5,112.2,316.7,111.2,316.7z M118.4,316.7c-1,0-1.8,0.8-1.8,1.8c0,1,0.8,1.8,1.8,1.8c1,0,1.8-0.8,1.8-1.8
		C120.2,317.5,119.4,316.7,118.4,316.7z"/>
	<path class="st12" d="M79.7,376.2c-1.5,0-2.7,1-2.7,2.3v9.8c0,1.3,1.2,2.3,2.7,2.3c1.5,0,2.7-1,2.7-2.3v-9.8
		C82.4,377.2,81.2,376.2,79.7,376.2z M99.6,366.7l2.2-2.1c0.3-0.3,0.3-0.7,0-0.9c-0.3-0.3-0.7-0.3-1,0l-2.7,2.6
		c-1-0.2-2-0.3-3.1-0.3c-1.1,0-2.1,0.1-3,0.3l-2.7-2.6c-0.3-0.3-0.7-0.3-1,0c-0.3,0.3-0.3,0.7,0,0.9l2.2,2.1
		c-3.7,1.3-6.2,4.2-6.2,7.6c0,0,21.6,0,21.6,0C105.8,370.9,103.2,368.1,99.6,366.7z M91.4,372.5c-1,0-1.8-0.8-1.8-1.8
		s0.8-1.8,1.8-1.8c1,0,1.8,0.8,1.8,1.8S92.4,372.5,91.4,372.5z M98.6,372.5c-1,0-1.8-0.8-1.8-1.8s0.8-1.8,1.8-1.8s1.8,0.8,1.8,1.8
		S99.6,372.5,98.6,372.5z M110.3,376.2c-1.5,0-2.7,1-2.7,2.3v9.8c0,1.3,1.2,2.3,2.7,2.3c1.5,0,2.7-1,2.7-2.3v-9.8
		C113,377.2,111.8,376.2,110.3,376.2z M84.2,390.5c0,2,1.6,3.7,3.7,3.7v6.8c0,1.2,1.2,2.2,2.6,2.2c1.4,0,2.6-1,2.6-2.2v-6.8h3.8v6.8
		c0,1.2,1.1,2.2,2.5,2.2c1.4,0,2.5-1,2.5-2.2v-6.8h0c2.1,0,3.8-1.6,3.8-3.7v-14.4H84.2L84.2,390.5L84.2,390.5z"/>
</g>
<g>
	<path class="st7" d="M834.2,264.5c49.7,0,90,40.3,90,90s-40.3,90-90,90s-90-40.3-90-90C744.2,304.8,784.5,264.5,834.2,264.5z"/>
	<path class="st17" d="M786.2,300.5c-5,0-9,4-9,9v117c15,11.3,33.7,18,54,18c49.7,0,90-40.3,90-90c0-20.3-6.7-39-18-54H786.2z"/>
	<path class="st18" d="M788,352.7v36c0,2,1.6,3.6,3.6,3.6h121.3c5.3-11.5,8.3-24.3,8.3-37.8c0-1.8-0.1-3.6-0.2-5.4H791.6
		C789.7,349.1,788,350.7,788,352.7z"/>
	<path class="st19" d="M902.2,350.9c-0.5,4.7-3.2,7.4-7.9,7.9c4.8,0.5,7.4,3.2,7.9,7.9c0.5-4.7,3.2-7.4,7.9-7.9
		C905.3,358.3,902.7,355.7,902.2,350.9z M844.3,369.2c-0.4,3.7-2.5,5.7-6.2,6.1c3.7,0.4,5.7,2.5,6.2,6.1c0.4-3.7,2.5-5.7,6.2-6.1
		C846.8,375,844.7,372.9,844.3,369.2z"/>
	<path class="st20" d="M810.6,354.6c-0.3,2.6-1.8,4.1-4.4,4.4c2.6,0.3,4.1,1.8,4.4,4.4c0.3-2.6,1.8-4.1,4.4-4.4
		C812.4,358.7,810.9,357.2,810.6,354.6z M893.1,378c-0.2,2.1-1.4,3.3-3.5,3.5c2.1,0.2,3.3,1.4,3.5,3.5c0.2-2.1,1.4-3.3,3.5-3.5
		C894.5,381.3,893.3,380.1,893.1,378z M870.9,363c-0.3,2.6-1.8,4.1-4.4,4.4c2.6,0.3,4.1,1.8,4.4,4.4c0.3-2.6,1.8-4.1,4.4-4.4
		C872.7,367.1,871.2,365.6,870.9,363z"/>
	<path class="st21" d="M815,370.7c8.9,0,16.2,7.3,16.2,16.2c0,8.9-7.3,16.2-16.2,16.2s-16.2-7.3-16.2-16.2
		C798.8,378,806.1,370.7,815,370.7z"/>
	<path class="st22" d="M794.3,311.3c-3.5,0-6.3,2.8-6.3,6.3c0,3.5,2.8,6.3,6.3,6.3c3.5,0,6.3-2.8,6.3-6.3
		C800.6,314.1,797.8,311.3,794.3,311.3z M794.3,320.3c-1.5,0-2.7-1.2-2.7-2.7c0-1.5,1.2-2.7,2.7-2.7c1.5,0,2.7,1.2,2.7,2.7
		C797,319.1,795.8,320.3,794.3,320.3z"/>
	<path class="st19" d="M812.3,311.3c-3.5,0-6.3,2.8-6.3,6.3c0,3.5,2.8,6.3,6.3,6.3s6.3-2.8,6.3-6.3
		C818.6,314.1,815.8,311.3,812.3,311.3z M812.3,320.3c-1.5,0-2.7-1.2-2.7-2.7c0-1.5,1.2-2.7,2.7-2.7c1.5,0,2.7,1.2,2.7,2.7
		C815,319.1,813.8,320.3,812.3,320.3z"/>
	<path class="st23" d="M830.3,311.3c-3.5,0-6.3,2.8-6.3,6.3c0,3.5,2.8,6.3,6.3,6.3s6.3-2.8,6.3-6.3
		C836.6,314.1,833.8,311.3,830.3,311.3z M830.3,320.3c-1.5,0-2.7-1.2-2.7-2.7c0-1.5,1.2-2.7,2.7-2.7c1.5,0,2.7,1.2,2.7,2.7
		C833,319.1,831.8,320.3,830.3,320.3z"/>
	<g>
		<path class="st15" d="M788,412.1c0,1,0.8,1.8,1.8,1.8h46.8c1,0,1.8-0.8,1.8-1.8c0-1-0.8-1.8-1.8-1.8h-46.8
			C788.9,410.3,788,411.1,788,412.1z M845.6,419.3c0,1,0.8,1.8,1.8,1.8h44.3c1.3-1.2,2.5-2.4,3.7-3.6h-48
			C846.5,417.5,845.6,418.3,845.6,419.3z M838.4,426.5c0-1-0.8-1.8-1.8-1.8h-46.8c-1,0-1.8,0.8-1.8,1.8c0,1,0.8,1.8,1.8,1.8h46.8
			C837.6,428.3,838.4,427.5,838.4,426.5z M845.6,412.1c0,1,0.8,1.8,1.8,1.8h51.4c1-1.2,2-2.4,3-3.6h-54.4
			C846.5,410.3,845.6,411.1,845.6,412.1z M910.2,311.3h-61c-2,0-3.6,1.6-3.6,3.6v5.4c0,2,1.6,3.6,3.6,3.6h66.7
			C914.3,319.6,912.4,315.4,910.2,311.3z M836.6,417.5h-46.8c-1,0-1.8,0.8-1.8,1.8c0,1,0.8,1.8,1.8,1.8h46.8c1,0,1.8-0.8,1.8-1.8
			C838.4,418.3,837.6,417.5,836.6,417.5z M847.4,424.7c-1,0-1.8,0.8-1.8,1.8c0,1,0.8,1.8,1.8,1.8h35.3c1.6-1.2,3.2-2.3,4.8-3.6
			H847.4z"/>
	</g>
	<path class="st15" d="M919,334.7H777.2v3.6h142.5C919.5,337.1,919.3,335.9,919,334.7z"/>
	<path class="st24" d="M820.4,386c0-4.5-2.4-8.1-5.4-8.1c-3,0-5.4,3.6-5.4,8.1c0,2.7,0.9,5,2.2,6.5c-4.2,0.5-7.7,1.8-10.1,3.7
		c2.9,4.2,7.8,6.9,13.3,6.9c5.5,0,10.4-2.8,13.3-6.9c-2.3-1.9-5.9-3.2-10.1-3.7C819.6,391,820.4,388.7,820.4,386z"/>
</g>
<g>
	<path class="st7" d="M277.2,2.5c-49.7,0-90,40.3-90,90s40.3,90,90,90s90-40.3,90-90S326.9,2.5,277.2,2.5z"/>
	<path class="st19" d="M329.4,45.7H225c-1,0-1.8,0.8-1.8,1.8v117c15,11.3,33.7,18,54,18s39-6.7,54-18v-117
		C331.2,46.5,330.4,45.7,329.4,45.7z"/>
	<path class="st18" d="M322.2,49.3h-90c-3,0-5.4,2.4-5.4,5.4v112.4c14.4,9.7,31.7,15.4,50.4,15.4s36-5.7,50.4-15.4V54.7
		C327.6,51.7,325.2,49.3,322.2,49.3z"/>
	<path class="st11" d="M232.2,170.4c13.2,7.7,28.6,12.1,45,12.1s31.8-4.4,45-12.1V67.3h-90V170.4z"/>
	<path class="st12" d="M261,126.9l12.6,2.3v-11.5H261V126.9z M275.4,129.7l16.2,2.4v-14.4h-16.1L275.4,129.7z M261,115.8h12.6v-11.5
		l-12.6,2.3V115.8z M275.4,103.7l0,12h16.1v-14.4L275.4,103.7z"/>
	<path class="st11" d="M286.2,54.7h-18c-1,0-1.8,0.8-1.8,1.8s0.8,1.8,1.8,1.8h18c1,0,1.8-0.8,1.8-1.8S287.2,54.7,286.2,54.7z
		 M243.9,54.7c-1.5,0-2.7,1.2-2.7,2.7c0,1.5,1.2,2.7,2.7,2.7s2.7-1.2,2.7-2.7C246.6,55.9,245.4,54.7,243.9,54.7z"/>
</g>
</svg>
